<svg width="736" height="144" viewBox="0 0 736 144" fill="none" xmlns="http://www.w3.org/2000/svg">
<path d="M33.375 65.375C27.125 71.625 24 79.1667 24 88V144H0V0H24V41.875C33.25 35.2917 43.9167 32 56 32C71.5 32 84.7083 37.4583 95.625 48.375C106.542 59.2917 112 72.5 112 88V144H88V88C88 79.1667 84.875 71.625 78.625 65.375C72.375 59.125 64.8333 56 56 56C47.1667 56 39.625 59.125 33.375 65.375ZM184 144C168.5 144 155.292 138.542 144.375 127.625C133.458 116.708 128 103.5 128 88C128 72.5 133.458 59.2917 144.375 48.375C155.292 37.4583 168.5 32 184 32C199.5 32 212.708 37.4583 223.625 48.375C234.542 59.2917 240 72.5 240 88C240 103.5 234.542 116.708 223.625 127.625C212.708 138.542 199.5 144 184 144ZM184 120C192.833 120 200.375 116.875 206.625 110.625C212.875 104.375 216 96.8333 216 88C216 79.1667 212.875 71.625 206.625 65.375C200.375 59.125 192.833 56 184 56C175.167 56 167.625 59.125 161.375 65.375C155.125 71.625 152 79.1667 152 88C152 96.8333 155.125 104.375 161.375 110.625C167.625 116.875 175.167 120 184 120ZM256 88C256 72.5 261.458 59.2917 272.375 48.375C283.292 37.4583 296.5 32 312 32V56C303.167 56 295.625 59.125 289.375 65.375C283.125 71.625 280 79.1667 280 88V144H256V88ZM352 32V144H328V32H352ZM340 24C336.667 24 333.833 22.8333 331.5 20.5C329.167 18.1667 328 15.3333 328 12C328 8.66667 329.167 5.83333 331.5 3.5C333.833 1.16667 336.667 0 340 0C343.333 0 346.167 1.16667 348.5 3.5C350.833 5.83333 352 8.66667 352 12C352 15.3333 350.833 18.1667 348.5 20.5C346.167 22.8333 343.333 24 340 24ZM368 32H480L416 120H480V144H368L432 56H368V32ZM552 144C536.5 144 523.292 138.542 512.375 127.625C501.458 116.708 496 103.5 496 88C496 72.5 501.458 59.2917 512.375 48.375C523.292 37.4583 536.5 32 552 32C567.5 32 580.708 37.4583 591.625 48.375C602.542 59.2917 608 72.5 608 88C608 103.5 602.542 116.708 591.625 127.625C580.708 138.542 567.5 144 552 144ZM552 120C560.833 120 568.375 116.875 574.625 110.625C580.875 104.375 584 96.8333 584 88C584 79.1667 580.875 71.625 574.625 65.375C568.375 59.125 560.833 56 552 56C543.167 56 535.625 59.125 529.375 65.375C523.125 71.625 520 79.1667 520 88C520 96.8333 523.125 104.375 529.375 110.625C535.625 116.875 543.167 120 552 120ZM648 144H624V88C624 72.5 629.458 59.2917 640.375 48.375C651.292 37.4583 664.5 32 680 32C695.5 32 708.708 37.4583 719.625 48.375C730.542 59.2917 736 72.5 736 88V144H712V88C712 79.1667 708.875 71.625 702.625 65.375C696.375 59.125 688.833 56 680 56C671.167 56 663.625 59.125 657.375 65.375C651.125 71.625 648 79.1667 648 88V144Z" fill="white"/>
</svg>
