<svg width="800" height="800" viewBox="0 0 800 800" fill="none" xmlns="http://www.w3.org/2000/svg">
<g clip-path="url(#clip0_58_102)">
<path d="M212.015 392.67C215.679 397.204 222.327 397.914 226.867 394.245C231.403 390.579 232.109 383.931 228.442 379.393L190.743 332.743C188.738 330.263 185.719 328.82 182.528 328.82C179.337 328.82 176.32 330.261 174.313 332.743L136.614 379.393C132.948 383.931 133.654 390.579 138.189 394.245C140.143 395.824 142.49 396.592 144.822 396.592C147.902 396.592 150.956 395.25 153.042 392.668L171.965 369.251V389.062L136.616 432.809C132.949 437.347 133.655 443.995 138.191 447.661C140.145 449.24 142.491 450.008 144.824 450.008C147.904 450.008 150.958 448.666 153.044 446.084L171.967 422.667V442.478L136.616 486.223C132.949 490.761 133.655 497.409 138.191 501.076C140.145 502.654 142.491 503.422 144.824 503.422C147.904 503.422 150.958 502.081 153.044 499.498L171.967 476.081V527.431C171.967 533.262 176.695 537.992 182.528 537.992C188.361 537.992 193.089 533.262 193.089 527.431V476.079L212.015 499.497C215.679 504.031 222.327 504.74 226.867 501.072C231.403 497.406 232.109 490.757 228.442 486.22L193.089 442.474V422.663L212.015 446.081C215.679 450.615 222.327 451.324 226.867 447.656C231.403 443.99 232.109 437.341 228.442 432.804L193.089 389.058V369.247L212.015 392.67Z" fill="white"/>
<path d="M756.107 781.928L588.91 616.62C591.494 616.787 594.086 616.902 596.697 616.902C661.733 616.902 714.644 563.991 714.644 498.954C714.644 460.519 695.867 424.714 664.9 402.735C677.665 386.023 684.577 365.699 684.577 344.318C684.577 291.124 641.3 247.848 588.105 247.848C563.382 247.848 539.655 257.385 521.823 274.256C503.034 265.39 482.307 260.734 461.392 260.734C443.366 260.734 425.613 264.218 409.077 270.79L138.272 3.05049C134.125 -1.04895 127.438 -1.01374 123.337 3.13498C119.236 7.28195 119.275 13.9688 123.422 18.07L389.019 280.667C382.649 284.453 376.545 288.721 370.805 293.505C366.325 297.24 365.72 303.899 369.453 308.381C373.188 312.86 379.849 313.467 384.329 309.732C405.894 291.759 433.263 281.86 461.392 281.86C481.497 281.86 501.392 286.91 518.924 296.466C523.232 298.816 528.599 297.883 531.864 294.216C546.15 278.174 566.651 268.974 588.107 268.974C629.654 268.974 663.457 302.774 663.457 344.321C663.457 361.647 657.634 378.071 646.937 391.392C635.084 384.911 611.22 375.469 576.976 378.983C567.39 351.301 541.074 331.361 510.172 331.361C504.341 331.361 499.611 336.091 499.611 341.922C499.611 347.754 504.341 352.483 510.172 352.483C537.502 352.483 559.738 374.72 559.738 402.05C559.738 424.063 545.613 443.13 524.588 449.501C519.005 451.19 515.85 457.087 517.542 462.668C518.924 467.231 523.113 470.17 527.645 470.17C528.659 470.17 529.691 470.024 530.71 469.714C560.707 460.628 580.859 433.435 580.859 402.05C580.859 401.305 580.825 400.57 580.802 399.83C605.267 397.634 623.194 403.481 633.213 408.186C639.224 411.009 647.895 416.745 649.868 418.045C676.964 435.88 693.522 466.259 693.522 498.956C693.522 552.346 650.086 595.781 596.697 595.781C584.317 595.781 572.29 593.486 560.939 588.966L58.7424 92.4444C54.5954 88.3432 47.9068 88.3801 43.8073 92.5288C39.7061 96.6758 39.7449 103.363 43.8918 107.464L741.254 796.948C743.314 798.983 745.996 799.998 748.681 799.998C751.404 799.998 754.125 798.951 756.191 796.862C760.292 792.716 760.256 786.03 756.107 781.928Z" fill="white"/>
<path d="M418.918 585.4C421.007 587.982 424.059 589.323 427.14 589.323C429.47 589.323 431.816 588.556 433.772 586.977C438.308 583.31 439.014 576.662 435.349 572.125L397.65 525.475C395.645 522.995 392.626 521.551 389.435 521.551C386.244 521.551 383.227 522.993 381.22 525.475L343.521 572.125C339.854 576.662 340.56 583.31 345.096 586.977C349.632 590.643 356.282 589.937 359.949 585.402L378.872 561.984V581.795L343.521 625.54C339.854 630.078 340.56 636.726 345.096 640.393C349.632 644.059 356.282 643.353 359.949 638.817L378.872 615.4V635.211L343.521 678.956C339.854 683.494 340.56 690.142 345.096 693.809C349.632 697.475 356.282 696.769 359.949 692.233L378.872 668.816V719.99C378.872 725.821 383.6 730.551 389.433 730.551C395.266 730.551 399.994 725.821 399.994 719.99V668.816L418.918 692.233C421.007 694.816 424.059 696.157 427.14 696.157C429.47 696.157 431.816 695.389 433.772 693.81C438.308 690.144 439.014 683.496 435.349 678.958L399.996 635.213V615.402L418.92 638.819C421.009 641.401 424.061 642.743 427.141 642.743C429.472 642.743 431.818 641.975 433.774 640.396C438.31 636.73 439.015 630.082 435.351 625.544L399.998 581.798V561.988L418.918 585.4Z" fill="white"/>
</g>
<defs>
<clipPath id="clip0_58_102">
<rect width="800" height="800" fill="white"/>
</clipPath>
</defs>
</svg>
