<svg width="800" height="800" viewBox="0 0 800 800" fill="none" xmlns="http://www.w3.org/2000/svg">
<g clip-path="url(#clip0_91_20)">
<path d="M433.333 450H200C151.377 450 104.745 430.684 70.3636 396.303C35.9819 361.921 16.6665 315.29 16.6665 266.667C16.6665 218.044 35.9819 171.412 70.3636 137.03C104.745 102.649 151.377 83.3333 200 83.3333H433.333C481.956 83.3333 528.588 102.649 562.969 137.03C597.351 171.412 616.666 218.044 616.666 266.667" stroke="white" stroke-width="33.3333" stroke-linecap="round" stroke-linejoin="round"/>
<path d="M433.333 383.333H200C169.058 383.333 139.383 371.042 117.504 349.162C95.6246 327.283 83.333 297.609 83.333 266.667C83.333 235.725 95.6246 206.05 117.504 184.171C139.383 162.292 169.058 150 200 150H433.333C448.654 150 463.825 153.018 477.979 158.881C492.134 164.744 504.995 173.337 515.829 184.171C526.662 195.004 535.256 207.866 541.119 222.02C546.982 236.175 550 251.346 550 266.667" stroke="white" stroke-width="33.3333" stroke-linecap="round" stroke-linejoin="round"/>
<path d="M453.409 235.12C459.092 235.12 466.667 241.641 466.667 253.775C466.667 265.91 459.092 272.43 453.409 272.43C447.726 272.43 440.151 265.91 440.151 253.775C440.152 241.641 447.727 235.12 453.409 235.12Z" fill="#353535" stroke="white" stroke-width="16.6667"/>
<path d="M179.924 235.12C185.606 235.12 193.181 241.641 193.182 253.775C193.182 265.91 185.607 272.43 179.924 272.43C174.241 272.43 166.666 265.91 166.666 253.775C166.666 241.641 174.241 235.12 179.924 235.12Z" fill="#353535" stroke="white" stroke-width="16.6667"/>
<path d="M244.697 269.647C253.271 280.532 264.203 289.329 276.669 295.378C289.135 301.427 302.81 304.57 316.666 304.57C330.523 304.57 344.198 301.427 356.664 295.378C369.13 289.329 380.062 280.532 388.636 269.647" stroke="white" stroke-width="33.3333" stroke-linecap="round" stroke-linejoin="round"/>
<path d="M782.026 467.613C792.866 385.493 735.08 310.133 652.96 299.294C570.839 288.455 495.479 346.24 484.64 428.361C473.801 510.482 531.586 585.841 613.707 596.68C695.828 607.52 771.187 549.734 782.026 467.613Z" stroke="white" stroke-width="33.3333" stroke-miterlimit="10"/>
<path d="M555.555 577.778L500 677.778" stroke="white" stroke-width="33.3333" stroke-linecap="round" stroke-linejoin="round"/>
<path d="M316.667 16.6667V83.3334" stroke="white" stroke-width="33.3333" stroke-linecap="round" stroke-linejoin="round"/>
<path d="M99.9998 666.667H455.033C470.377 666.355 485.267 671.881 496.693 682.127C508.119 692.374 515.229 706.576 516.585 721.863C517.01 729.776 515.819 737.693 513.084 745.131C510.349 752.569 506.127 759.371 500.676 765.123C495.225 770.876 488.66 775.457 481.38 778.588C474.099 781.719 466.258 783.333 458.333 783.333H99.9998C89.0563 783.333 78.22 781.178 68.1095 776.99C57.9991 772.802 48.8125 766.664 41.0743 758.926C25.4462 743.298 16.6665 722.101 16.6665 700V533.333C16.6665 511.232 25.4462 490.036 41.0743 474.408C56.7023 458.78 77.8985 450 99.9998 450H266.666" stroke="white" stroke-width="33.3333" stroke-linecap="round" stroke-linejoin="round"/>
<path d="M266.667 516.667H133.333V583.333H266.667V516.667Z" stroke="white" stroke-width="33.3333" stroke-linecap="round" stroke-linejoin="round"/>
<path d="M400 666.667V783.333" stroke="white" stroke-width="33.3333" stroke-linecap="round" stroke-linejoin="round"/>
</g>
<defs>
<clipPath id="clip0_91_20">
<rect width="800" height="800" fill="white"/>
</clipPath>
</defs>
</svg>
