<svg width="800" height="800" viewBox="0 0 800 800" fill="none" xmlns="http://www.w3.org/2000/svg">
<path d="M788.615 351.231C788.615 351.231 682.873 351.231 647.625 351.231C638.517 351.231 638.226 343.262 638.226 343.262V165.703C638.226 160.721 639.692 160.905 640.507 163.594C641.322 166.286 642.254 169.123 643.306 172.119C646.425 180.986 657.853 211.004 673.893 225.019C690.604 239.628 725.408 247.509 749.671 247.509C765.545 247.509 775.821 244.207 782.016 237.119C790.532 227.373 790.995 209.109 783.387 182.842C780.245 171.996 771.246 145.294 755.56 131.584C735.784 114.295 688.393 105.619 667.421 105.619C665.076 105.619 657.803 105.622 656.642 105.622C627.656 105.622 604.07 129.205 604.07 158.193V343.829C604.07 343.829 605.309 351.231 594.304 351.231C581.924 351.231 559.603 351.231 544.779 351.231C536.621 351.231 536.899 345.541 536.899 345.541V97.9936C536.899 67.361 511.979 42.4368 481.349 42.4368C480.115 42.4368 472.234 42.4346 469.665 42.4346C443.441 42.4346 394.77 53.0044 375.072 70.2232C351.924 90.4544 327.48 160.796 346.529 182.596C352.953 189.944 363.753 193.364 380.518 193.364C406.556 193.364 443.862 184.946 461.712 169.344C478.833 154.379 491.099 122.132 494.453 112.605C497.575 103.736 502.746 95.0358 502.746 97.9913V344.78C502.746 344.78 503.796 351.229 492.03 351.229C350.334 351.229 361.052 351.229 321.73 351.229C311.579 351.229 311.916 344.02 311.916 344.02V172.636C311.916 147.712 291.64 127.431 266.716 127.431C265.777 127.431 210.25 129.223 186.009 148.878C172.459 159.862 165.466 182.282 162.888 191.173C153.264 224.404 161.88 234.261 164.71 237.499C170.343 243.941 179.335 246.942 193.011 246.942C208.859 246.942 239.808 241.866 255.385 228.25C263.742 220.945 270.432 208.932 275.015 198.815C276.038 196.556 277.764 194.591 277.764 203.13V344.02C277.764 344.02 277.046 351.229 269.446 351.229C206.092 351.229 11.3899 351.229 11.3899 351.229C5.12815 351.229 0.00488281 356.352 0.00488281 362.614V731.84C0.00488281 738.102 5.12815 743.225 11.3899 743.225H22.775C29.0368 743.225 34.16 738.102 34.16 731.84V396.771C34.16 390.51 38.771 385.386 44.4088 385.386C50.0467 385.386 59.2413 387.679 64.8404 390.478L91.5862 403.853C97.1854 406.651 98.4195 412.822 94.3254 417.56L72.794 442.489C68.7 447.228 70.1003 453.027 75.9067 455.375L229.842 517.624C235.648 519.969 238.453 526.194 236.078 531.454C233.701 536.716 226.765 542.163 220.661 543.566L155.347 558.562C149.242 559.965 140.731 564.833 136.43 569.385L75.7724 633.555C71.4711 638.107 70.5762 646.229 73.78 651.61L123.353 734.787C126.557 740.165 133.581 741.943 138.959 738.737L148.739 732.908C154.117 729.704 155.896 722.68 152.69 717.299L116.337 656.305C113.134 650.927 114.028 642.802 118.33 638.251L154.14 600.361C158.441 595.812 166.953 590.941 173.058 589.538L244.806 573.067C250.911 571.664 258.011 565.848 260.588 560.142L281.459 513.93C284.039 508.224 281.398 501.635 275.591 499.287L132.932 441.597C127.126 439.249 125.725 433.449 129.817 428.711L148.869 406.651C152.963 401.913 151.729 395.742 146.13 392.944L141.198 390.478C135.599 387.677 136.138 385.386 142.4 385.386H509.536C515.798 385.386 521.747 390.444 522.761 396.623L535.086 471.956C536.097 478.136 541.801 484.766 547.758 486.69L691.093 532.953C697.05 534.877 698.591 540.339 694.515 545.094L675.448 567.331C671.372 572.085 668.205 581.095 668.412 587.353L669.277 613.636C669.484 619.893 664.555 625.506 658.322 626.107L601.871 631.552C595.639 632.153 586.471 635.76 581.501 639.564L496.136 704.915C491.163 708.722 492.085 713 498.18 714.426L681.484 757.27C687.582 758.695 693.737 754.87 695.16 748.772L697.753 737.69C699.177 731.592 695.356 725.437 689.26 724.01L576.33 697.614C570.232 696.187 569.312 691.908 574.285 688.101L594.505 672.622C599.478 668.815 608.645 665.21 614.877 664.611L693.516 657.029C699.748 656.428 704.678 650.815 704.471 644.558L702.988 599.503C702.781 593.245 705.948 584.235 710.024 579.481L753.863 528.36C757.939 523.605 756.398 518.143 750.441 516.219L578.099 460.594C572.142 458.67 566.438 452.039 565.427 445.859L557.371 396.623C556.36 390.444 560.655 385.386 566.916 385.386H754.458C760.72 385.386 765.843 390.51 765.843 396.771V731.842C765.843 738.104 770.966 743.228 777.228 743.228H788.613C794.875 743.228 799.998 738.104 799.998 731.842V362.616C800 356.354 794.877 351.231 788.615 351.231ZM754.633 213.165C750.327 216.737 704.632 206.527 696.369 199.305C685.503 189.809 666.552 142.648 669.751 139.815C672.672 137.226 724.235 149.568 733.084 157.303C744.036 166.875 757.632 210.674 754.633 213.165ZM439.231 143.632C429.9 151.786 376.85 162.809 373.626 158.86C370.966 155.6 384.874 107.015 397.546 95.942C407.767 87.007 466.744 73.9894 468.827 76.5965C471.915 80.4584 451.766 132.672 439.231 143.632ZM232.902 202.536C221.011 212.932 194.525 214.966 192.938 212.789C190.914 210.009 201.693 180.531 208.483 174.597C214.338 169.48 249.597 157.84 251.931 161.898C253.755 165.065 240.065 196.276 232.902 202.536Z" fill="white"/>
<path d="M543.707 588.302L506.307 513.498C503.507 507.896 496.689 505.717 491.161 508.654L418.176 547.427C412.647 550.365 404.525 549.122 400.128 544.663L358.4 502.356C354.003 497.898 346.76 497.848 342.301 502.245L334.193 510.242C329.735 514.638 329.687 521.882 334.081 526.34L393.68 586.765C398.077 591.223 406.199 592.467 411.727 589.529L476.267 555.242C481.798 552.305 488.613 554.482 491.414 560.083L498.447 574.15C501.246 579.752 499.046 586.795 493.554 589.803L336.431 675.867C330.939 678.872 325.618 686.391 324.607 692.571L318.604 729.231C317.593 735.41 321.822 741.294 328.002 742.305L339.236 744.147C345.416 745.158 351.3 740.93 352.311 734.75L355.622 714.528C356.633 708.348 361.954 700.83 367.446 697.822L538.814 603.954C544.306 600.948 546.508 593.903 543.707 588.302Z" fill="white"/>
</svg>
