<svg width="800" height="800" viewBox="0 0 800 800" fill="none" xmlns="http://www.w3.org/2000/svg">
<path d="M765.469 625.625C775.997 625.625 784.531 617.09 784.531 606.563C784.531 596.035 775.997 587.5 765.469 587.5C754.941 587.5 746.406 596.035 746.406 606.563C746.406 617.09 754.941 625.625 765.469 625.625Z" fill="white"/>
<path d="M140.203 89.4219H219.891C222.791 89.4219 225.573 88.2695 227.625 86.2184C229.676 84.1672 230.828 81.3852 230.828 78.4844C230.828 75.5836 229.676 72.8016 227.625 70.7504C225.573 68.6992 222.791 67.5469 219.891 67.5469H140.203C137.302 67.5469 134.52 68.6992 132.469 70.7504C130.418 72.8016 129.266 75.5836 129.266 78.4844C129.266 81.3852 130.418 84.1672 132.469 86.2184C134.52 88.2695 137.302 89.4219 140.203 89.4219Z" fill="white"/>
<path d="M147.938 746.517C158.33 744.83 165.387 735.038 163.7 724.646C162.014 714.254 152.222 707.198 141.83 708.884C131.438 710.571 124.381 720.363 126.068 730.755C127.755 741.147 137.547 748.204 147.938 746.517Z" fill="white"/>
<path d="M105.087 90.3362C110.623 81.3808 107.85 69.6339 98.8948 64.0986C89.9394 58.5634 78.1925 61.3359 72.6572 70.2913C67.122 79.2466 69.8945 90.9936 78.8499 96.5288C87.8052 102.064 99.5522 99.2915 105.087 90.3362Z" fill="white"/>
<path d="M327.547 385.484C324.232 385.484 321.052 386.801 318.708 389.146C316.364 391.49 315.047 394.669 315.047 397.984C315.12 400.508 314.685 403.02 313.77 405.373C312.854 407.725 311.476 409.87 309.717 411.681C307.958 413.491 305.853 414.93 303.528 415.913C301.203 416.896 298.704 417.402 296.18 417.402C293.655 417.402 291.157 416.896 288.831 415.913C286.506 414.93 284.402 413.491 282.642 411.681C280.883 409.87 279.505 407.725 278.59 405.373C277.674 403.02 277.24 400.508 277.313 397.984C277.313 394.669 275.996 391.49 273.651 389.146C271.307 386.801 268.128 385.484 264.813 385.484C261.497 385.484 258.318 386.801 255.974 389.146C253.629 391.49 252.313 394.669 252.313 397.984C252.202 403.815 253.256 409.609 255.411 415.027C257.566 420.446 260.78 425.38 264.864 429.542C268.948 433.705 273.821 437.011 279.198 439.268C284.575 441.525 290.348 442.687 296.18 442.687C302.011 442.687 307.784 441.525 313.161 439.268C318.538 437.011 323.411 433.705 327.495 429.542C331.58 425.38 334.793 420.446 336.948 415.027C339.104 409.609 340.157 403.815 340.047 397.984C340.047 394.669 338.73 391.49 336.386 389.146C334.042 386.801 330.862 385.484 327.547 385.484Z" fill="white"/>
<path d="M394.656 460.625C376.798 460.646 359.677 467.749 347.049 480.377C334.421 493.005 327.318 510.126 327.297 527.984C327.297 531.3 328.614 534.479 330.958 536.823C333.302 539.167 336.482 540.484 339.797 540.484C343.112 540.484 346.292 539.167 348.636 536.823C350.98 534.479 352.297 531.3 352.297 527.984C352.297 516.75 356.76 505.976 364.704 498.032C372.648 490.088 383.422 485.625 394.656 485.625C405.891 485.625 416.665 490.088 424.609 498.032C432.553 505.976 437.016 516.75 437.016 527.984C437.016 531.3 438.333 534.479 440.677 536.823C443.021 539.167 446.2 540.484 449.516 540.484C452.831 540.484 456.01 539.167 458.354 536.823C460.699 534.479 462.016 531.3 462.016 527.984C461.995 510.126 454.892 493.005 442.264 480.377C429.636 467.749 412.515 460.646 394.656 460.625Z" fill="white"/>
<path d="M524.844 385.484C521.529 385.484 518.349 386.801 516.005 389.146C513.661 391.49 512.344 394.669 512.344 397.984C512.416 400.508 511.982 403.02 511.067 405.373C510.151 407.725 508.773 409.87 507.014 411.681C505.255 413.491 503.15 414.93 500.825 415.913C498.5 416.896 496.001 417.402 493.477 417.402C490.952 417.402 488.453 416.896 486.128 415.913C483.803 414.93 481.698 413.491 479.939 411.681C478.18 409.87 476.802 407.725 475.887 405.373C474.971 403.02 474.537 400.508 474.609 397.984C474.609 394.669 473.292 391.49 470.948 389.146C468.604 386.801 465.425 385.484 462.109 385.484C458.794 385.484 455.615 386.801 453.271 389.146C450.926 391.49 449.609 394.669 449.609 397.984C449.499 403.815 450.553 409.609 452.708 415.027C454.863 420.446 458.077 425.38 462.161 429.542C466.245 433.705 471.118 437.011 476.495 439.268C481.872 441.525 487.645 442.687 493.477 442.687C499.308 442.687 505.081 441.525 510.458 439.268C515.835 437.011 520.708 433.705 524.792 429.542C528.877 425.38 532.09 420.446 534.245 415.027C536.4 409.609 537.454 403.815 537.344 397.984C537.344 394.669 536.027 391.49 533.683 389.146C531.338 386.801 528.159 385.484 524.844 385.484Z" fill="white"/>
<path d="M724.031 400.875C724.22 354.74 714.518 309.1 695.578 267.031H773.891C776.791 267.031 779.573 265.879 781.625 263.828C783.676 261.777 784.828 258.995 784.828 256.094C784.828 253.193 783.676 250.411 781.625 248.36C779.573 246.309 776.791 245.156 773.891 245.156H684.703C679.357 235.322 673.511 225.768 667.187 216.531C661.979 209.031 656.526 201.797 650.828 194.828C663.287 186.021 672.934 173.801 678.609 159.639C684.283 145.476 685.743 129.975 682.813 115.002C679.882 100.03 672.686 86.2229 662.091 75.2448C651.496 64.2667 637.953 56.5852 623.094 53.125L624.844 33.8907C624.938 32.7207 624.938 31.545 624.844 30.375C624.257 25.3394 621.726 20.7323 617.791 17.5361C613.856 14.34 608.827 12.8079 603.778 13.2665C598.73 13.7251 594.06 16.1382 590.765 19.9911C587.47 23.844 585.81 28.8318 586.141 33.8907L587.875 52.9532C574.834 55.891 562.744 62.0701 552.723 70.9189C542.703 79.7676 535.075 91.0004 530.547 103.578C489.68 85.5524 445.525 76.1788 400.859 76.0469C395.422 76.0469 390.047 76.1407 384.922 76.3907C325.63 79.0436 268.209 97.9466 218.936 131.033C169.662 164.12 130.434 210.116 105.54 263.994C80.6449 317.872 71.0422 377.557 77.7812 436.525C84.5201 495.492 107.341 551.472 143.75 598.344H131.844C121.823 598.356 112.217 602.342 105.131 609.428C98.0454 616.514 94.0593 626.12 94.0469 636.141C94.0469 640.363 92.3694 644.413 89.3835 647.399C86.3975 650.385 82.3477 652.063 78.125 652.063H24.0781C21.1773 652.063 18.3953 653.215 16.3441 655.266C14.293 657.317 13.1406 660.099 13.1406 663C13.1406 665.901 14.293 668.683 16.3441 670.734C18.3953 672.785 21.1773 673.938 24.0781 673.938H78.125C88.1441 673.925 97.7491 669.938 104.832 662.852C111.915 655.766 115.898 646.16 115.906 636.141C115.91 631.919 117.589 627.872 120.574 624.887C123.559 621.902 127.607 620.223 131.828 620.219H162.344C192.544 652.885 229.161 678.967 269.903 696.833C310.646 714.698 354.638 723.963 399.125 724.047H400C443.278 724.196 486.141 715.601 526.016 698.777C565.891 681.953 601.956 657.247 632.047 626.141C634.813 623.313 637.5 620.422 640.156 617.5H708.391C711.291 617.5 714.073 616.348 716.125 614.297C718.176 612.245 719.328 609.463 719.328 606.563C719.328 603.662 718.176 600.88 716.125 598.829C714.073 596.777 711.291 595.625 708.391 595.625H658.313C660.667 592.5 662.953 589.375 665.172 586.25C703.438 532.006 723.997 467.258 724.031 400.875ZM589.891 74.9063L593.016 109C593.016 112.315 594.333 115.495 596.677 117.839C599.021 120.183 602.2 121.5 605.516 121.5C608.831 121.5 612.01 120.183 614.354 117.839C616.699 115.495 618.016 112.315 618.016 109L621.141 75.1094C634.43 78.9675 645.875 87.5023 653.364 99.1385C660.853 110.775 663.881 124.727 661.888 138.421C659.895 152.115 653.016 164.625 642.521 173.644C632.025 182.663 618.622 187.581 604.784 187.491C590.947 187.401 577.609 182.309 567.232 173.155C556.855 164 550.139 151.401 548.324 137.683C546.509 123.964 549.718 110.052 557.357 98.5145C564.997 86.9766 576.552 78.5913 589.891 74.9063ZM394.344 99.75C394.317 110.823 390.329 121.522 383.101 129.911C375.873 138.3 365.881 143.825 354.933 145.488C343.985 147.151 332.804 144.842 323.41 138.977C314.017 133.113 307.032 124.082 303.719 113.516C330.276 104.594 357.95 99.4295 385.937 98.1719C388.641 98.0313 391.438 97.9532 394.25 97.9063C394.297 98.5157 394.344 99.1407 394.344 99.75ZM182.594 480.875C182.921 483.335 183.083 485.815 183.078 488.297C183.021 501.895 178.085 515.022 169.167 525.288C160.249 535.554 147.941 542.277 134.484 544.234C113.963 506.406 101.745 464.637 98.6433 421.713C95.5421 378.789 101.63 335.698 116.5 295.313C132.414 290.851 149.33 291.528 164.836 297.247C180.343 302.966 193.647 313.435 202.853 327.161C212.059 340.887 216.695 357.17 216.102 373.687C215.508 390.203 209.714 406.111 199.547 419.141C192.794 427.807 187.819 437.722 184.91 448.316C182.001 458.911 181.214 469.975 182.594 480.875ZM416.609 701.719C416.609 700.547 416.609 699.641 416.609 699.172C416.618 686.872 421.505 675.078 430.2 666.378C438.894 657.678 450.685 652.782 462.984 652.766C481.187 652.766 494.344 662.766 502.187 671.172C505.171 674.386 507.864 677.858 510.234 681.547C480.304 693.229 448.695 700.039 416.609 701.719ZM575 595.625C572.099 595.625 569.317 596.777 567.266 598.829C565.215 600.88 564.062 603.662 564.062 606.563C564.062 609.463 565.215 612.245 567.266 614.297C569.317 616.348 572.099 617.5 575 617.5H609.703C585.684 640.771 557.962 659.886 527.672 674.063C524.307 668.453 520.358 663.216 515.891 658.438C501.219 642.734 482.437 634.078 462.984 634.078C445.714 634.103 429.159 640.977 416.95 653.191C404.742 665.406 397.876 681.964 397.859 699.234C397.859 699.75 397.859 700.797 397.859 702.203C321.719 701.797 248.568 672.52 193.172 620.281H266.281C269.182 620.281 271.964 619.129 274.015 617.078C276.066 615.027 277.219 612.245 277.219 609.344C277.219 606.443 276.066 603.661 274.015 601.61C271.964 599.559 269.182 598.406 266.281 598.406H172.094C161.98 586.769 152.766 574.379 144.531 561.344C162.522 556.918 178.249 546.013 188.702 530.717C199.155 515.421 203.6 496.807 201.187 478.438C200.115 469.995 200.724 461.424 202.98 453.218C205.235 445.012 209.092 437.334 214.328 430.625C225.777 415.956 232.777 398.311 234.497 379.782C236.216 361.254 232.583 342.621 224.029 326.096C215.474 309.572 202.358 295.848 186.236 286.556C170.115 277.263 151.665 272.792 133.078 273.672C130.422 273.797 127.766 274.047 125.125 274.375C139.753 242.331 159.904 213.11 184.656 188.047C213.536 158.778 248.041 135.658 286.094 120.078C290.935 134.786 300.857 147.289 314.081 155.344C327.305 163.399 342.966 166.48 358.255 164.035C373.545 161.59 387.464 153.778 397.516 142.001C407.569 130.223 413.097 115.25 413.109 99.7657C413.109 99.2344 413.109 98.7032 413.109 98.2032C452.197 99.8974 490.582 109.179 526.125 125.531C526.031 127.094 525.984 128.656 525.984 130.219C525.98 142.827 528.987 155.254 534.755 166.465C540.522 177.677 548.884 187.349 559.145 194.676C569.405 202.004 581.267 206.775 593.744 208.592C606.22 210.409 618.951 209.221 630.875 205.125C637.313 212.734 643.375 220.75 649.156 229C652.812 234.297 656.281 239.719 659.578 245.219H639.453C629.437 245.231 619.834 249.216 612.751 256.298C605.669 263.381 601.684 272.984 601.672 283C601.668 287.222 599.989 291.269 597.004 294.254C594.019 297.239 589.971 298.918 585.75 298.922H531.687C528.787 298.922 526.005 300.074 523.954 302.125C521.902 304.177 520.75 306.959 520.75 309.859C520.75 312.76 521.902 315.542 523.954 317.593C526.005 319.645 528.787 320.797 531.687 320.797H585.75C595.771 320.785 605.377 316.798 612.463 309.713C619.548 302.627 623.534 293.021 623.547 283C623.555 278.784 625.234 274.743 628.215 271.762C631.196 268.781 635.237 267.102 639.453 267.094H671.406C695.171 315.691 705.468 369.772 701.225 423.701C696.982 477.631 678.354 529.436 647.281 573.719C641.99 581.271 636.318 588.594 630.266 595.688L575 595.625Z" fill="white"/>
<path d="M605.484 163.625C608.385 163.625 611.167 162.473 613.218 160.421C615.27 158.37 616.422 155.588 616.422 152.688V147.031C616.422 144.13 615.27 141.348 613.218 139.297C611.167 137.246 608.385 136.094 605.484 136.094C602.584 136.094 599.802 137.246 597.75 139.297C595.699 141.348 594.547 144.13 594.547 147.031V152.688C594.547 155.588 595.699 158.37 597.75 160.421C599.802 162.473 602.584 163.625 605.484 163.625Z" fill="white"/>
</svg>
