<svg width="800" height="712" viewBox="0 0 800 712" fill="none" xmlns="http://www.w3.org/2000/svg">
<path d="M791.639 298.092C791.639 298.092 721.133 244.02 721.133 243.791C721.133 243.791 715.248 238.062 715.248 226.485C715.248 196.847 715.248 107.932 715.248 107.932C715.248 94.585 704.389 83.7261 691.043 83.7261H604.01C590.663 83.7261 579.804 94.585 579.804 107.932C579.804 107.932 579.804 122.849 579.804 127.82C579.804 133.346 576.792 130.807 576.792 130.807L416.338 5.87219C412.187 2.64126 407.289 0.932129 402.174 0.932129C393.795 0.932129 386.106 5.6575 382.109 13.2623L344.543 84.7133C339.97 93.4126 339.953 105.572 344.501 114.28L393.026 207.213C393.026 207.213 396.579 212.01 391.751 220.503C379.031 242.869 331.007 303.585 331.007 303.585C325.154 311.59 323.432 323.689 326.821 333.009L339.709 368.452C339.709 368.452 343.87 379.785 335.834 373.176C320.188 360.311 292.926 339.706 278.912 328.193C271.253 321.902 277.191 314.32 277.191 314.32L325.105 230.48C330.715 220.657 329.454 207.287 322.11 198.686L263.055 129.54C258.397 124.086 251.566 120.957 244.317 120.957C238.861 120.957 233.509 122.786 229.242 126.107L8.36021 298.09C-0.219128 304.766 -1.11579 313.438 0.906963 319.325C2.92761 325.213 8.96009 331.506 19.8316 331.506H68.485C68.485 331.506 73.4651 331.024 73.4651 336.111C73.4651 423.799 73.4651 686.864 73.4651 686.864C73.4651 700.211 84.324 711.07 97.6708 711.07H313.676C327.023 711.07 337.882 700.211 337.882 686.864V583.481C337.882 578.659 337.749 570.862 337.583 566.162C337.574 565.844 336.941 534.004 355.689 514.749C365.68 504.484 379.383 499.496 397.577 499.496C416.881 499.496 432.101 504.951 442.816 515.711C462.124 535.101 462.219 566.196 462.219 566.442C462.16 571.13 462.112 578.793 462.112 583.479V686.862C462.112 700.209 472.97 711.068 486.317 711.068H702.323C715.669 711.068 726.528 700.209 726.528 686.862C726.528 686.862 726.528 425.641 726.528 338.566C726.528 330.936 733.078 331.506 733.078 331.506H780.162C791.033 331.506 797.066 325.215 799.086 319.325C801.113 313.438 800.217 304.766 791.639 298.092ZM611.379 119.662C611.379 115.452 615.584 115.297 615.584 115.297H678.199C678.199 115.297 683.678 115.103 683.678 120.891C683.678 141.809 683.678 182.243 683.678 204.559C683.678 213.856 678.336 209.865 678.336 209.865L612.208 158.379C611.896 157.972 611.379 157.156 611.379 154.261C611.379 154.261 611.379 128.917 611.379 119.662ZM719.165 299.933C705.819 299.933 694.96 310.792 694.96 324.139V671.657C694.96 671.657 695.993 679.495 687.311 679.495C641.202 679.495 550.896 679.495 502.874 679.495C493.665 679.495 493.688 670.868 493.688 670.868V583.477C493.688 578.899 493.737 571.412 493.792 566.834C493.815 565.04 494.006 522.603 465.431 493.671C448.554 476.584 425.725 467.921 397.581 467.921C370.675 467.921 348.898 476.338 332.86 492.939C304.808 521.975 305.97 565.356 306.033 567.191C306.185 571.576 306.313 579.033 306.313 583.477V673.499C306.313 673.499 306.863 679.495 297.128 679.495C249.106 679.495 159.985 679.495 114.27 679.495C103.745 679.495 105.042 670.868 105.042 670.868V324.139C105.042 310.792 94.183 299.933 80.8362 299.933C80.8362 299.933 68.946 299.933 64.9805 299.933C58.6659 299.933 63.9891 294.793 63.9891 294.793L239.369 158.24C239.369 158.24 243.189 155.053 245.778 157.932C254.014 167.097 279.552 197.508 289.19 208.758C293.707 214.033 288.374 217.781 288.374 217.781L153.015 304.57C147.143 308.334 145.434 316.147 149.199 322.019C151.612 325.781 155.682 327.833 159.844 327.833C162.176 327.833 164.537 327.185 166.646 325.833C166.646 325.833 240.4 279.306 264.513 263.082C270.024 259.375 269.577 264.006 269.577 264.006L242.25 311.824C236.129 322.541 238.923 336.926 248.611 344.571L361.098 433.338C365.259 436.618 369.606 438.283 374.02 438.283C379.543 438.283 384.716 435.607 387.857 431.126C390.328 427.596 392.612 421.562 389.444 412.85L356.669 322.72C356.676 322.445 356.728 322.068 356.802 321.803L422.858 231.457C429.093 222.926 430.067 209.939 425.178 200.574C425.178 200.574 408.282 167.695 402.366 156.888C396.491 146.154 405.893 152.333 405.893 152.333L637.651 325.326C639.918 327.018 642.568 327.835 645.195 327.835C649.045 327.835 652.846 326.082 655.328 322.76C659.499 317.172 658.35 309.258 652.76 305.086L377.253 99.4303C377.253 99.4303 373.559 97.1108 375.95 92.7706C381.601 82.52 396.314 53.6563 402.212 42.8732C404.822 38.0994 409.676 40.6968 409.676 40.6968L733.55 292.874C733.55 292.874 739.932 299.933 730.811 299.933C727.898 299.933 719.165 299.933 719.165 299.933Z" fill="white"/>
</svg>
