<svg width="800" height="800" viewBox="0 0 800 800" fill="none" xmlns="http://www.w3.org/2000/svg">
<g clip-path="url(#clip0_58_60)">
<path d="M725 700C716.464 699.979 707.999 698.442 700 695.46V695.313C688.284 690.351 677.695 683.065 668.872 673.897C660.05 664.728 653.178 653.866 648.67 641.968C647.091 636.96 643.93 632.599 639.662 629.54C635.394 626.481 630.25 624.888 625 625C619.76 625.026 614.658 626.686 610.407 629.75C606.155 632.813 602.965 637.127 601.283 642.09C595.749 658.223 585.54 672.344 571.956 682.656C558.372 692.969 542.026 699.006 525 700C507.953 698.998 491.59 692.944 477.997 682.609C464.403 672.274 454.194 658.126 448.67 641.968C447.027 636.999 443.85 632.68 439.597 629.631C435.344 626.582 430.233 624.961 425 625C419.76 625.026 414.658 626.686 410.407 629.75C406.155 632.813 402.965 637.127 401.283 642.09C395.749 658.223 385.54 672.344 371.956 682.656C358.372 692.969 342.026 699.006 325 700C307.953 698.998 291.59 692.944 277.997 682.609C264.403 672.274 254.194 658.126 248.67 641.968C246.987 637.011 243.791 632.707 239.532 629.664C235.274 626.62 230.167 624.991 224.932 625.004C219.698 625.018 214.599 626.674 210.356 629.739C206.113 632.805 202.94 637.125 201.283 642.09C195.749 658.223 185.54 672.344 171.956 682.656C158.372 692.969 142.026 699.006 125 700H50V750H125C144.402 750.172 163.571 745.762 180.947 737.129C198.323 728.496 213.417 715.884 225 700.318C236.702 715.756 251.82 728.276 269.169 736.895C286.518 745.515 305.628 750 325 750C344.372 750 363.482 745.515 380.831 736.895C398.18 728.276 413.298 715.756 425 700.318C436.702 715.756 451.82 728.276 469.169 736.895C486.518 745.515 505.628 750 525 750C544.372 750 563.482 745.515 580.831 736.895C598.18 728.276 613.298 715.756 625 700.318C638.92 718.307 657.363 732.283 678.447 740.818C693.206 746.923 709.028 750.043 725 750H750V700H725Z" fill="white"/>
<path d="M700 340.75L743.932 375L775 335.705L415.308 55.3476C410.871 51.8823 405.403 50 399.774 50C394.144 50 388.677 51.8823 384.24 55.3476L25 335.485L56.0675 374.78L100 340.528V470.215C95.3734 481.446 88.575 491.652 79.9948 500.249C71.4146 508.846 61.2214 515.664 50 520.313V572.4C79.9114 566.393 106.59 549.645 125 525.318C136.702 540.756 151.82 553.276 169.169 561.895C186.518 570.515 205.628 575 225 575C244.372 575 263.482 570.515 280.831 561.895C298.18 553.276 313.298 540.756 325 525.318C336.702 540.756 351.82 553.276 369.169 561.895C386.518 570.515 405.628 575 425 575C444.372 575 463.482 570.515 480.831 561.895C498.18 553.276 513.298 540.756 525 525.318C536.583 540.883 551.677 553.496 569.053 562.129C586.429 570.762 605.598 575.172 625 575H750V525H700V340.75ZM548.717 467.08C547.06 462.115 543.887 457.795 539.644 454.729C535.401 451.664 530.302 450.008 525.068 449.994C519.833 449.981 514.726 451.61 510.468 454.654C506.209 457.697 503.013 462.001 501.33 466.958C495.808 483.118 485.599 497.268 472.006 507.605C458.412 517.942 442.048 523.997 425 525C407.974 524.006 391.628 517.969 378.044 507.656C364.46 497.344 354.251 483.223 348.717 467.09C347.035 462.127 343.845 457.813 339.593 454.75C335.342 451.686 330.24 450.026 325 450C319.767 449.961 314.656 451.582 310.403 454.631C306.15 457.68 302.973 461.999 301.33 466.968C295.806 483.126 285.597 497.274 272.003 507.609C258.41 517.944 242.047 523.998 225 525C208.5 524.236 192.59 518.639 179.246 508.905C165.902 499.17 155.713 485.728 149.948 470.25L150 301.538L399.775 106.788L650 301.795L650.042 525H625C607.974 524.006 591.628 517.969 578.044 507.656C564.46 497.344 554.251 483.213 548.717 467.08Z" fill="white"/>
</g>
<defs>
<clipPath id="clip0_58_60">
<rect width="800" height="800" fill="white"/>
</clipPath>
</defs>
</svg>
