<svg width="800" height="796" viewBox="0 0 800 796" fill="none" xmlns="http://www.w3.org/2000/svg">
<path d="M758.802 525.459L706.902 467.369C691.053 449.626 661.6 460.911 661.6 484.658V560.048C661.6 564.817 657.72 568.698 652.95 568.698C648.18 568.698 644.3 564.819 644.3 560.048V519.067C644.3 492.031 638.05 465.384 626.38 441.25H629.095C652.123 441.25 663.781 413.289 647.444 396.951L510.094 259.601H566.45C589.478 259.601 601.136 231.64 584.798 215.303L377.202 7.70605C367.069 -2.42676 350.637 -2.42676 340.503 7.70605L132.906 215.303C116.617 231.592 128.159 259.601 151.255 259.601H207.611L70.2656 396.948C53.9765 413.237 65.5187 441.247 88.614 441.247H144.97L7.62183 578.597C-8.66723 594.886 2.87496 622.895 25.9703 622.895H281.006V769.944C281.006 784.275 292.625 795.894 306.956 795.894H410.755C425.086 795.894 436.705 784.275 436.705 769.944C436.705 753.383 436.705 642.1 436.705 622.895H436.884C432.417 710.587 514.119 795.894 618.352 795.894C719.266 795.894 799.998 715.69 799.998 629.248C800 572.233 760.494 527.353 758.802 525.459ZM384.805 743.994H332.906V622.895H384.806V743.994H384.805ZM477.906 525.458C476.867 526.622 461.362 544.242 449.678 570.994C447.658 570.995 96.0328 570.995 88.6203 570.995L225.969 433.645C242.258 417.356 230.716 389.347 207.62 389.347H151.264L288.612 251.997C304.902 235.708 293.359 207.698 270.264 207.698H213.908L358.858 62.7482L503.808 207.698H447.451C424.423 207.698 412.766 235.659 429.103 251.997L529.414 352.308C520.989 349.083 512.317 346.453 503.441 344.534L502.728 344.379C491.739 342.012 480.481 346.981 474.828 356.695C469.177 366.408 470.419 378.656 477.906 387.036C478.186 387.348 505.908 419.405 505.908 456.245C505.908 493.151 478.117 525.219 477.906 525.458ZM618.352 743.994C545.595 743.994 488.603 686.515 488.603 629.248C488.603 604.612 501.987 576.756 516.606 560.037C518.287 558.155 557.802 513.269 557.802 456.251C557.802 446.948 556.751 437.97 554.981 429.447C578.219 452.669 592.4 484.659 592.4 519.069V560.05C592.4 593.437 619.562 620.598 652.948 620.598C686.336 620.598 713.497 593.436 713.497 560.05V552.655L720.095 560.042C720.375 560.355 748.097 592.412 748.097 629.251C748.1 686.461 691.159 743.994 618.352 743.994Z" fill="white"/>
</svg>
