<svg width="636" height="759" viewBox="0 0 636 759" fill="none" xmlns="http://www.w3.org/2000/svg">
<path d="M190.725 345.375C187.875 355.575 186.225 367.3 186.225 379.4C186.225 439.775 227.025 490.65 282.575 505.9L283.5 506.125C293.775 509 305.55 510.65 317.725 510.675C390.15 510.575 448.825 451.825 448.825 379.375C448.825 306.875 390.05 248.075 317.525 248.075C257.1 248.075 206.225 288.9 190.925 344.45L190.7 345.375H190.725ZM283.1 319.8C292.925 314 304.725 310.575 317.35 310.575C323.725 310.575 329.9 311.45 335.75 313.05L335.275 312.925C364.85 321.05 386.225 347.7 386.225 379.35C386.225 385.675 385.375 391.775 383.775 397.6L383.9 397.125C375.775 426.7 349.125 448.1 317.5 448.1C279.525 448.1 248.75 417.325 248.75 379.35C248.75 354.05 262.425 331.925 282.8 320L283.125 319.825L283.1 319.8ZM252.8 652.1C270.05 652.075 284 638.1 284 620.85C284 606.475 274.3 594.375 261.1 590.725L260.875 590.675C145.225 558.95 61.625 454.775 61.625 331.05C61.625 182.625 181.95 62.275 330.4 62.275C355.125 62.275 379.075 65.625 401.825 71.875L399.95 71.425C402.325 72.075 405.025 72.425 407.825 72.425C425.075 72.425 439.075 58.425 439.075 41.175C439.075 26.875 429.475 14.825 416.375 11.125L416.15 11.075C390.675 4.05 361.425 0 331.25 0C148.3 0 0 148.3 0 331.25C0 483.4 102.575 611.6 242.35 650.45L244.675 651C247.125 651.675 249.9 652.1 252.8 652.1ZM591.4 262.025C547.625 186.7 476.825 131.15 392.575 108.225L390.275 107.7C387.9 107.05 385.2 106.7 382.4 106.7C365.15 106.7 351.15 120.7 351.15 137.95C351.15 152.25 360.75 164.3 373.85 168L374.075 168.05C489.725 199.775 573.3 303.95 573.3 427.65C573.3 576.075 452.975 696.4 304.55 696.4C279.825 696.4 255.875 693.05 233.125 686.8L235 687.25C232.525 686.55 229.675 686.125 226.725 686.125C209.475 686.125 195.475 700.1 195.475 717.375C195.475 731.825 205.3 743.975 218.6 747.55L218.825 747.6C244.55 754.775 274.075 758.875 304.55 758.875C487.5 758.875 635.8 610.575 635.8 427.625C635.8 366.625 619.325 309.5 590.575 260.425L591.425 262L591.4 262.025Z" fill="white"/>
</svg>
