<svg width="600" height="668" viewBox="0 0 600 668" fill="none" xmlns="http://www.w3.org/2000/svg">
<path d="M233.333 667.333C226.667 667.333 220 664 213.333 660.667C203.333 650.667 196.667 637.333 200 624L233.333 527.333C246.667 484 226.667 437.333 186.667 417.333C73.3333 360.667 13.3333 234 46.6666 110.667L59.9999 54.0001C69.9999 20.6667 96.6666 0.666748 126.667 0.666748H426.667C460 0.666748 493.333 17.3334 513.333 47.3334C530 77.3334 533.333 114 516.667 144L500 177.333C483.333 210.667 486.667 247.333 510 277.333C536.667 310.667 550 354 543.333 397.333C536.667 440.667 513.333 480.667 476.667 504L253.333 660.667C246.667 664 240 667.333 233.333 667.333ZM126.667 67.3334L110 124C89.9999 217.333 133.333 314 216.667 354C286.667 390.667 320 470.667 296.667 547.333L436.667 447.333C456.667 434 470 410.667 473.333 384C476.667 357.333 470 334 453.333 314C413.333 267.333 406.667 200.667 436.667 144L453.333 110.667C460 94.0001 453.333 84.0001 453.333 77.3334C450 77.3334 443.333 67.3334 426.667 67.3334H126.667Z" fill="white"/>
<path d="M516.667 567.333C525.871 567.333 533.333 559.871 533.333 550.667C533.333 541.462 525.871 534 516.667 534C507.462 534 500 541.462 500 550.667C500 559.871 507.462 567.333 516.667 567.333Z" fill="white"/>
<path d="M583.334 634C592.538 634 600 626.538 600 617.333C600 608.129 592.538 600.667 583.334 600.667C574.129 600.667 566.667 608.129 566.667 617.333C566.667 626.538 574.129 634 583.334 634Z" fill="white"/>
<path d="M49.9997 167.333C39.9997 167.333 33.333 160.667 33.333 150.667C33.333 140.667 39.9997 134 49.9997 134" fill="white"/>
<path d="M83.3337 634C92.5384 634 100 626.538 100 617.333C100 608.129 92.5384 600.667 83.3337 600.667C74.1289 600.667 66.667 608.129 66.667 617.333C66.667 626.538 74.1289 634 83.3337 634Z" fill="white"/>
<path d="M450 634C459.204 634 466.666 626.538 466.666 617.333C466.666 608.129 459.204 600.667 450 600.667C440.795 600.667 433.333 608.129 433.333 617.333C433.333 626.538 440.795 634 450 634Z" fill="white"/>
<path d="M150 534C159.204 534 166.666 526.538 166.666 517.333C166.666 508.129 159.204 500.667 150 500.667C140.795 500.667 133.333 508.129 133.333 517.333C133.333 526.538 140.795 534 150 534Z" fill="white"/>
<path d="M16.6667 534C25.8714 534 33.3333 526.538 33.3333 517.333C33.3333 508.129 25.8714 500.667 16.6667 500.667C7.46192 500.667 0 508.129 0 517.333C0 526.538 7.46192 534 16.6667 534Z" fill="white"/>
</svg>
