<svg width="800" height="742" viewBox="0 0 800 742" fill="none" xmlns="http://www.w3.org/2000/svg">
<path d="M786.462 435.722C754.572 437.005 722.897 437.817 693.306 437.817C653.5 437.83 617.397 436.345 589.961 432.748C567.331 429.827 536.978 423.473 509.737 410.361C482.397 397.198 458.675 377.809 446.477 348.663C438.092 328.614 434.508 309.733 434.502 292.314C434.52 260.525 446.439 233.233 464.633 212.664C482.808 192.12 507.317 178.638 531.47 174.98H531.509C535.262 174.395 539.056 174.116 542.83 174.116C559.689 174.078 575.908 179.858 587.337 188.992C598.823 198.23 605.359 210.02 605.392 223.425C605.38 231.747 603.848 237.77 601.816 242.344C598.753 249.166 594.408 253.067 590.711 255.506C590.036 255.938 589.427 256.269 588.823 256.6C588.303 256.37 587.833 256.144 587.255 255.902C582.592 254.008 576.194 251.95 568.458 251.913C562.695 251.9 556.031 253.208 549.85 256.981C543.656 260.716 538.364 266.739 534.669 274.489C531.734 280.563 530.119 286.839 530.119 293.052C530.088 300.319 532.445 307.256 536.269 312.758C542.038 321.067 550.416 326.405 559.469 329.898C568.572 333.367 578.623 335.031 588.825 335.044C621.88 335.019 655.816 322.009 681.695 296.65C707.602 271.314 724.97 233.441 724.9 185.641C724.786 145.047 706.352 99.4594 672.802 63.1219C639.292 26.861 589.809 0.103146 528.608 0.153146C524.802 0.153146 520.959 0.254708 517.078 0.457833H517.084C457.806 3.5844 407.03 20.7735 363.545 51.561C320.03 82.3328 283.939 126.281 252.264 182.35C224.827 231.013 193.152 294.933 153.739 346.225C134.07 371.866 112.536 394.252 89.1516 410.07C65.7094 425.902 40.7063 435.253 12.8109 435.709L0 435.9V561.875H13.0109C28.0547 561.888 38.6891 563.742 47.5203 566.397C60.6953 570.336 70.4844 576.65 84.5234 582.978C98.4922 589.278 116.186 594.477 141.939 594.4C159.136 594.413 172.68 592.202 183.994 588.759C201.045 583.55 212.409 576.144 224.055 571.034C235.775 565.902 248.303 561.95 270.906 561.873C285.956 561.886 296.603 563.741 305.441 566.395C318.63 570.334 328.419 576.648 342.47 582.977C356.445 589.277 374.145 594.475 399.911 594.398C417.108 594.411 430.652 592.2 441.967 588.758C459.017 583.548 470.383 576.142 482.028 571.033C493.747 565.9 506.275 561.948 528.878 561.872C543.934 561.884 554.588 563.739 563.425 566.394C576.62 570.333 586.422 576.647 600.475 582.975C614.458 589.275 632.163 594.473 657.936 594.397C675.139 594.409 688.689 592.198 700.016 588.756C717.067 583.547 728.438 576.141 740.102 571.031C751.83 565.898 764.369 561.947 786.992 561.87H800V548.861V435.159L786.462 435.722ZM704.823 559.206C693.095 564.352 680.555 568.303 657.934 568.38C642.878 568.367 632.231 566.511 623.387 563.856C610.198 559.917 600.397 553.591 586.344 547.263C572.361 540.973 554.65 535.777 528.877 535.853C511.68 535.841 498.142 538.05 486.822 541.494C469.777 546.703 458.413 554.109 446.761 559.205C435.047 564.35 422.513 568.302 399.909 568.378C384.859 568.366 374.219 566.509 365.381 563.855C352.194 559.916 342.397 553.602 328.352 547.261C314.377 540.972 296.672 535.775 270.905 535.852C253.708 535.839 240.17 538.048 228.85 541.492C211.805 546.702 200.441 554.108 188.789 559.203C177.075 564.348 164.541 568.3 141.937 568.377C126.9 568.364 116.261 566.508 107.436 563.853C94.2609 559.914 84.4703 553.6 70.425 547.272C58.9594 542.102 44.9 537.717 26.0188 536.345V460.977C54.5875 458.131 80.5703 447.331 103.733 431.602C143.666 404.502 176.002 363.195 203.808 319.856C231.556 276.506 254.719 230.906 274.914 195.141C305.317 141.32 339.108 100.688 378.558 72.8C418.041 44.9485 463.317 29.436 518.464 26.45H518.47C521.902 26.2594 525.275 26.1703 528.603 26.1703C582.094 26.2078 624.256 49.1172 653.714 80.8031C683.134 112.414 698.984 153.072 698.877 185.636C698.808 227.234 684.28 257.561 663.467 278.069C642.636 298.55 615.041 309.031 588.822 309.019C579.109 309.069 569.606 306.681 563.755 303.225C560.806 301.523 558.825 299.655 557.713 298.016C556.608 296.352 556.177 295.042 556.138 293.048C556.144 291.345 556.564 288.995 558.106 285.767C560.108 281.689 561.919 280.113 563.366 279.211C564.827 278.32 566.352 277.942 568.455 277.928C571.205 277.902 574.712 278.842 577.342 279.947C578.658 280.494 579.75 281.039 580.455 281.42L581.198 281.841L581.236 281.866L581.313 281.916L585.995 284.928L591.483 283.53C592.748 283.175 602.233 280.709 612.123 271.714C617.039 267.216 621.97 261.042 625.572 252.961C629.186 244.892 631.422 235.008 631.409 223.42C631.441 200.969 619.955 181.594 603.534 168.634C587.062 155.559 565.494 148.114 542.828 148.089C537.778 148.089 532.652 148.458 527.494 149.258H527.531C496.753 154.011 467.256 170.514 445.162 195.405C423.086 220.283 408.469 253.875 408.481 292.309C408.481 313.338 412.853 335.713 422.477 358.709C437.869 395.478 467.561 419.009 498.473 433.811C529.488 448.677 562.236 455.361 586.592 458.548C615.948 462.372 652.833 463.822 693.305 463.833C719.116 463.833 746.439 463.134 773.978 462.144V536.317C762.733 537.13 753.205 538.961 744.908 541.489C727.853 546.703 716.481 554.097 704.823 559.206Z" fill="white"/>
<path d="M704.824 633.8C693.096 638.945 680.555 642.897 657.935 642.973C642.879 642.961 632.232 641.105 623.388 638.45C610.199 634.511 600.397 628.184 586.344 621.856C572.361 615.567 554.65 610.37 528.877 610.447C511.68 610.434 498.143 612.644 486.822 616.087C469.777 621.297 458.413 628.691 446.761 633.798C435.047 638.944 422.513 642.895 399.91 642.972C384.86 642.959 374.219 641.103 365.382 638.448C352.194 634.509 342.397 628.183 328.352 621.855C314.377 615.566 296.672 610.369 270.905 610.445C253.708 610.433 240.171 612.642 228.85 616.086C211.805 621.295 200.441 628.689 188.789 633.797C177.075 638.942 164.541 642.894 141.938 642.97C126.9 642.958 116.261 641.102 107.436 638.447C94.2613 634.508 84.4707 628.181 70.4254 621.853C56.4566 615.564 38.7629 610.367 13.0098 610.444V636.464C28.0535 636.477 38.6879 638.32 47.5191 640.986C60.6941 644.925 70.4832 651.239 84.5223 657.567C98.491 663.867 116.185 669.066 141.938 668.989C159.135 669.002 172.679 666.778 183.993 663.348C201.044 658.139 212.408 650.733 224.054 645.637C235.774 640.492 248.302 636.541 270.905 636.464C285.955 636.477 296.602 638.32 305.439 640.986C318.629 644.925 328.418 651.239 342.469 657.58C356.444 663.869 374.144 669.067 399.91 668.989C417.107 669.002 430.65 666.778 441.966 663.348C459.016 658.139 470.382 650.733 482.027 645.637C493.746 640.492 506.274 636.541 528.877 636.464C543.933 636.477 554.586 638.32 563.424 640.986C576.619 644.925 586.421 651.252 600.474 657.58C614.457 663.869 632.161 669.067 657.935 668.989C675.138 669.002 688.688 666.778 700.014 663.348C717.066 658.139 728.436 650.744 740.1 645.637C751.829 640.492 764.368 636.541 786.991 636.464V610.444C769.78 610.431 756.236 612.641 744.91 616.084C727.854 621.297 716.482 628.691 704.824 633.8Z" fill="white"/>
<path d="M704.824 706.653C693.096 711.799 680.555 715.75 657.935 715.827C642.879 715.814 632.232 713.958 623.388 711.303C610.199 707.366 600.397 701.038 586.344 694.711C572.361 688.422 554.65 683.224 528.877 683.302C511.68 683.289 498.143 685.499 486.822 688.942C469.777 694.152 458.413 701.545 446.761 706.653C435.047 711.799 422.513 715.75 399.91 715.827C384.86 715.814 374.219 713.958 365.382 711.303C352.194 707.366 342.397 701.038 328.352 694.711C314.377 688.422 296.672 683.224 270.905 683.302C253.708 683.289 240.171 685.499 228.85 688.942C211.805 694.152 200.441 701.545 188.789 706.653C177.075 711.799 164.541 715.75 141.938 715.827C126.9 715.814 116.261 713.958 107.436 711.303C94.2613 707.366 84.4707 701.038 70.4254 694.711C56.4566 688.422 38.7629 683.224 13.0098 683.302V709.322C28.0535 709.334 38.6879 711.177 47.5191 713.845C60.6941 717.783 70.4832 724.097 84.5223 730.427C98.491 736.727 116.185 741.925 141.938 741.849C159.135 741.861 172.679 739.638 183.993 736.206C201.044 730.997 212.408 723.591 224.054 718.495C235.774 713.35 248.302 709.399 270.905 709.322C285.955 709.334 296.602 711.177 305.439 713.845C318.629 717.783 328.418 724.097 342.469 730.438C356.444 736.727 374.144 741.925 399.91 741.849C417.107 741.861 430.65 739.638 441.966 736.206C459.016 730.997 470.382 723.591 482.027 718.495C493.746 713.35 506.274 709.399 528.877 709.322C543.933 709.334 554.586 711.177 563.424 713.845C576.619 717.783 586.421 724.111 600.474 730.438C614.457 736.727 632.161 741.925 657.935 741.849C675.138 741.861 688.688 739.638 700.014 736.206C717.066 730.997 728.436 723.603 740.1 718.495C751.829 713.35 764.368 709.399 786.991 709.322V683.302C769.78 683.289 756.236 685.499 744.91 688.942C727.854 694.15 716.482 701.544 704.824 706.653Z" fill="white"/>
</svg>
