<svg width="800" height="800" viewBox="0 0 800 800" fill="none" xmlns="http://www.w3.org/2000/svg">
<path d="M751.788 753.763C750.488 752.575 635.35 645.888 543.013 461.038C560.875 469.488 544.887 446.788 544.887 446.788C532.462 431.475 518.737 376.038 510.25 363.188C510.173 363.09 510.093 362.995 510.012 362.9C527.675 346.15 553.912 339.638 544.887 314.8C529.062 271.35 453.575 383.2 488.912 318.35C524.3 253.463 487.3 245.838 477.1 260C470.45 269.238 457.15 331.75 446.975 351.188C444.022 351.449 441.093 351.934 438.212 352.638C436.8 348.613 435.65 341.625 434.825 330.738C428.575 247.625 525.863 -7.0248 473.263 28.3502C420.625 63.7127 427.563 295.35 396.7 334.263C365.875 373.163 428.138 79.5377 404.5 49.5877C386.888 27.2127 342.725 31.8877 361.9 221.075C381.075 410.313 349.15 309.513 332.175 261.763C315.187 214.05 297.563 231.625 315.488 318.35C329.813 387.838 296.475 290.05 257.538 217.563C218.625 145.05 130.687 185.738 205.037 238.788C273.95 287.938 283.725 331.025 297.05 366.563C283.587 378.525 271.938 405.638 259.113 446.788C255.425 458.625 258.6 457.6 264.488 451.438C175.388 643.725 51.2125 752.363 49.875 753.513L25 775H775L751.788 753.763ZM89.475 750.413C134.225 705.675 235.025 592.513 305.925 419.6L306.437 418.35L306.813 417.4C309.438 420.35 312.075 424.188 314.9 427.388C302.737 437.988 294.738 452.063 292.525 469.725C289.663 491.95 291.3 510.738 276 527.788C254.387 551.825 223.262 577.4 229.487 616.513C238.062 595.925 250.975 580.15 266.95 566.2C276.475 557.875 286.863 550.525 295.438 540.963C310.125 524.613 313.5 503.65 311 481.325C308.787 461.638 310.825 446.825 317.237 429.788C322.737 434.888 329.1 436.2 337.5 423.163C353.875 397.813 367.813 403.55 390.3 427.125C364.525 451.788 372.025 496.663 393.2 522.288C408.8 541.138 439.963 566.95 429.575 596.475C456.9 577.5 432.188 533.075 417.35 514.863C396.788 490.038 385.487 462.975 393.162 430.188C398.15 435.575 403.537 441.688 409.475 448.55C415.962 456.05 421.962 461.763 427.55 465.988C431.8 486.275 445.862 506.338 457.925 518.338C457.8 518.25 457.7 518.138 457.587 518.025C487.462 549.563 470.625 598.388 458.475 635.413C489.088 608.588 513.062 547.338 481.9 510.763C476.275 503.563 469 498.2 462.625 491.913C457.468 486.981 452.827 481.536 448.775 475.663C461.963 477.25 472.038 469.288 480.175 458.6C482.013 456.188 483.725 454 485.375 452.075C501.908 487.241 514.906 523.963 524.175 561.7C528.2 578.038 530.837 594.938 535.787 610.963C541.825 629.675 557.562 657.05 578.775 653.688C560.037 644.488 555.475 616.588 553.587 596.4C551.682 579.377 548.46 562.526 543.95 546C534.125 510.95 516.975 472.713 492.387 445.538C496.387 442.675 500.6 441.425 506.038 442.375C579.213 599.55 672.05 707.225 713.15 750.45H89.475V750.413Z" fill="white"/>
<path d="M169.762 692.475C152.387 704.3 125.925 722.55 123.1 747.362C141.587 733.225 163.612 724.75 182.875 711.9C201.312 700.025 221.987 673.862 220.25 648.337C205.412 664.387 188.175 681.5 169.762 692.475Z" fill="white"/>
<path d="M355.562 489.225C352.837 472.912 354.337 457.062 356.737 440.862C332.875 466.975 334.475 504.687 345.15 537.112C355.562 568.687 349.325 602.9 346.3 635.375C367.262 610.012 379.112 567.887 368.725 534.55C364 519.425 358.175 505.1 355.562 489.225Z" fill="white"/>
<path d="M310.475 566.975C302.737 600.675 283.212 622.675 262.25 646.825C237.475 675.325 244.812 719.775 274.587 740.3C269.087 726.475 263.987 710.575 265.15 695.2C265.762 678.388 275.125 666.763 285.737 656.075C306.2 635.513 323.662 597.35 310.475 566.975Z" fill="white"/>
<path d="M402.975 596.475C373.662 613.113 376.987 656.2 393.262 681.638C403.862 698.288 421.85 718.663 421.487 740.288C437.087 724.275 424.862 691.488 416.137 675.25C401.9 650.1 394.3 626.013 402.975 596.475Z" fill="white"/>
<path d="M330.1 635.375C302.163 645.7 314.25 686.737 327.538 704.412C333.788 712.675 358.175 733.962 353.888 747.362C372.25 741.05 354.95 703.962 349.113 695.237C337.65 677.862 323.388 658.35 330.1 635.375Z" fill="white"/>
<path d="M435.4 648.337C444.5 664 455.038 678.75 464.675 694.037C474.863 710.25 480.075 728.7 485.375 747.362C515.175 709.25 473.613 650.812 435.4 648.337Z" fill="white"/>
<path d="M555 695.213C532.163 677.775 518.375 652.962 508.263 624.75C492.2 658.925 516.45 700.012 544.4 714.337C548.575 719.012 585.825 728.638 578.813 740.288C593.238 737.575 576.325 714.5 572.4 710.238C567.1 704.475 561.075 699.85 555 695.213Z" fill="white"/>
<path d="M615.9 704.813C623.962 732.963 656.062 746.763 680.612 740.3C661.725 728.975 639.6 715.888 636.5 689.975L636.512 690.375C633.675 663.925 610.862 641.038 588.037 635.388C596.375 649.363 605.775 663.25 610.95 679.138C613.687 687.475 613.487 696.363 615.9 704.813Z" fill="white"/>
<path d="M502.737 233.8C524.162 210.988 534.437 140.25 518.412 163.838C502.35 187.4 489.287 248.113 502.737 233.8Z" fill="white"/>
<path d="M559.112 297.437C579.787 291.15 620.687 210.987 600.975 230.625C581.25 250.287 532.875 305.412 559.112 297.437Z" fill="white"/>
<path d="M589.437 121.388C567.15 133.175 528.437 227.45 526.225 262.875C523.862 300.663 611.712 109.613 589.437 121.388Z" fill="white"/>
<path d="M300.687 204.4C340.975 232.387 258.712 82.1125 252.712 111.95C246.7 141.825 282.887 192.037 300.687 204.4Z" fill="white"/>
</svg>
